<svg xmlns="http://www.w3.org/2000/svg" width="77" height="77" viewBox="0 0 77 77">
  <g id="グループ_3132" data-name="グループ 3132" transform="translate(-612.875 -372)">
    <g id="_47159_更新済み_" data-name="47159 [更新済み]" transform="translate(628.193 389.888)">
      <path id="パス_7577" data-name="パス 7577" d="M171.858,260.373a4.353,4.353,0,0,0,4.365-3.169l1.174-4.912,3.154,6.659a2.379,2.379,0,1,0,4.362-1.9s-5.742-14.417-5.762-14.456a4.045,4.045,0,0,0-7.844.382l-1.918,9.782-9.453-1.6a2.9,2.9,0,0,0-3.165,1.756l-4.576,11.109a2.613,2.613,0,0,0,4.755,2.161l1.744-3.5-.325,10.194a2.624,2.624,0,0,0,5.229.363l1.376-12.868Z" transform="translate(-151.993 -229.328)" fill="#fff"/>
      <circle id="楕円形_6" data-name="楕円形 6" cx="4.597" cy="4.597" r="4.597" transform="translate(19.246 0)" fill="#fff"/>
      <rect id="長方形_1107" data-name="長方形 1107" width="24.882" height="2.602" transform="translate(14.551 32.563)" fill="#fff"/>
    </g>
  </g>
</svg>
